<?xml version="1.0" encoding="UTF-8" standalone="no"?>
<svg
   xmlns:dc="http://purl.org/dc/elements/1.1/"
   xmlns:cc="http://creativecommons.org/ns#"
   xmlns:rdf="http://www.w3.org/1999/02/22-rdf-syntax-ns#"
   xmlns:svg="http://www.w3.org/2000/svg"
   xmlns="http://www.w3.org/2000/svg"
   xmlns:sodipodi="http://sodipodi.sourceforge.net/DTD/sodipodi-0.dtd"
   xmlns:inkscape="http://www.inkscape.org/namespaces/inkscape"
   sodipodi:docname="accesos.svg"
   inkscape:version="1.0 (4035a4fb49, 2020-05-01)"
   id="svg8"
   version="1.1"
   viewBox="0 0 61 61"
   height="61mm"
   width="61mm">
  <defs
     id="defs2">
    <filter
       height="1.0910869"
       y="-0.045543425"
       width="1.0840802"
       x="-0.042040084"
       id="filter877"
       style="color-interpolation-filters:sRGB"
       inkscape:collect="always">
      <feGaussianBlur
         id="feGaussianBlur879"
         stdDeviation="0.42723662"
         inkscape:collect="always" />
    </filter>
  </defs>
  <sodipodi:namedview
     inkscape:window-maximized="1"
     inkscape:window-y="0"
     inkscape:window-x="0"
     inkscape:window-height="704"
     inkscape:window-width="1366"
     showgrid="false"
     inkscape:document-rotation="0"
     inkscape:current-layer="layer1"
     inkscape:document-units="mm"
     inkscape:cy="37.403894"
     inkscape:cx="33.819702"
     inkscape:zoom="0.98994949"
     inkscape:pageshadow="2"
     inkscape:pageopacity="0.0"
     borderopacity="1.0"
     bordercolor="#666666"
     pagecolor="#ffffff"
     id="base" />
  <metadata
     id="metadata5">
    <rdf:RDF>
      <cc:Work
         rdf:about="">
        <dc:format>image/svg+xml</dc:format>
        <dc:type
           rdf:resource="http://purl.org/dc/dcmitype/StillImage" />
        <dc:title></dc:title>
      </cc:Work>
    </rdf:RDF>
  </metadata>
  <g
     id="layer1"
     inkscape:groupmode="layer"
     inkscape:label="Capa 1">
    <g
       id="g892">
      <circle
         style="opacity:0.995293;fill:#8d5fd3;fill-opacity:1;stroke-width:0.25;stroke-linecap:round"
         id="path866"
         cx="30.5"
         cy="30.5"
         r="30" />
      <rect
         ry="0.75046903"
         rx="0.75046903"
         y="29.044264"
         x="19.363213"
         height="22.514071"
         width="24.390244"
         id="rect871"
         style="opacity:0.995293;fill:#784421;stroke-width:0.0938086;stroke-linecap:round;filter:url(#filter877)" />
      <g
         id="g884">
        <path
           d="m 30.501456,10.500001 a 11.257035,11.257035 0 0 0 -11.256932,11.257118 11.257035,11.257035 0 0 0 0.0037,0.287175 v 3.202585 h 1.876834 v -3.752311 h -7.88e-4 a 9.3808628,9.3808628 0 0 1 9.330263,-9.118317 9.3808628,9.3808628 0 0 1 0.04693,0 9.3808628,9.3808628 0 0 1 9.377186,9.118317 v 9.38087 h 1.876833 v -9.38087 a 11.257035,11.257035 0 0 0 -11.254,-10.994567 z"
           style="opacity:0.995293;fill:#c8b7b7;fill-opacity:1;stroke-width:0.0938086;stroke-linecap:round"
           id="path833" />
        <rect
           ry="0.75046903"
           rx="0.75046903"
           y="27.985929"
           x="18.304878"
           height="22.514071"
           width="24.390244"
           id="rect835"
           style="opacity:0.995293;fill:#c87137;stroke-width:0.0938086;stroke-linecap:round" />
        <path
           d="m 30.499923,33.416611 a 3.3771107,3.3771107 0 0 0 -3.377099,3.377098 3.3771107,3.3771107 0 0 0 2.055812,3.107761 v 4.838969 c 0,0.41576 0.334662,0.750424 0.750423,0.750424 h 1.141922 c 0.415761,0 0.750424,-0.334664 0.750424,-0.750424 V 39.90147 a 3.3771107,3.3771107 0 0 0 2.055616,-3.107761 3.3771107,3.3771107 0 0 0 -3.377098,-3.377098 z"
           style="opacity:0.995293;fill:#000000;fill-opacity:1;stroke-width:0.0938086;stroke-linecap:round"
           id="path854" />
      </g>
    </g>
  </g>
</svg>
