<?xml version="1.0" encoding="UTF-8" standalone="no"?>
<svg
   xmlns:dc="http://purl.org/dc/elements/1.1/"
   xmlns:cc="http://creativecommons.org/ns#"
   xmlns:rdf="http://www.w3.org/1999/02/22-rdf-syntax-ns#"
   xmlns:svg="http://www.w3.org/2000/svg"
   xmlns="http://www.w3.org/2000/svg"
   xmlns:sodipodi="http://sodipodi.sourceforge.net/DTD/sodipodi-0.dtd"
   xmlns:inkscape="http://www.inkscape.org/namespaces/inkscape"
   sodipodi:docname="cursos.svg"
   inkscape:version="1.0 (4035a4fb49, 2020-05-01)"
   id="svg8"
   version="1.1"
   viewBox="0 0 61 61"
   height="61mm"
   width="61mm">
  <defs
     id="defs2">
    <filter
       height="1.1444268"
       y="-0.072213394"
       width="1.2027099"
       x="-0.10135493"
       id="filter2028"
       style="color-interpolation-filters:sRGB"
       inkscape:collect="always">
      <feGaussianBlur
         id="feGaussianBlur2030"
         stdDeviation="0.42552609"
         inkscape:collect="always" />
    </filter>
    <filter
       height="1.1890881"
       y="-0.094544063"
       width="1.1325951"
       x="-0.066297556"
       id="filter2048"
       style="color-interpolation-filters:sRGB"
       inkscape:collect="always">
      <feGaussianBlur
         id="feGaussianBlur2050"
         stdDeviation="1.1049489"
         inkscape:collect="always" />
    </filter>
  </defs>
  <sodipodi:namedview
     inkscape:window-maximized="1"
     inkscape:window-y="0"
     inkscape:window-x="0"
     inkscape:window-height="704"
     inkscape:window-width="1366"
     showguides="false"
     showgrid="false"
     inkscape:document-rotation="0"
     inkscape:current-layer="layer1"
     inkscape:document-units="mm"
     inkscape:cy="54.293692"
     inkscape:cx="81.645628"
     inkscape:zoom="0.98994949"
     inkscape:pageshadow="2"
     inkscape:pageopacity="0.0"
     borderopacity="1.0"
     bordercolor="#666666"
     pagecolor="#ffffff"
     id="base" />
  <metadata
     id="metadata5">
    <rdf:RDF>
      <cc:Work
         rdf:about="">
        <dc:format>image/svg+xml</dc:format>
        <dc:type
           rdf:resource="http://purl.org/dc/dcmitype/StillImage" />
        <dc:title></dc:title>
      </cc:Work>
    </rdf:RDF>
  </metadata>
  <g
     id="layer1"
     inkscape:groupmode="layer"
     inkscape:label="Capa 1">
    <g
       id="g2057">
      <circle
         style="opacity:0.995293;fill:#00ff66;stroke-width:0.25;stroke-linecap:round"
         id="path2037"
         cx="30.5"
         cy="30.5"
         r="30" />
      <path
         d="m 35.035642,17.534476 c -2.238615,-0.02648 -4.500665,0.698709 -6.388758,2.218469 -1.905969,1.534149 -3.101361,3.614211 -3.543969,5.830135 h -3.01532 c -5.54,0 -9.999906,4.459906 -9.999906,9.999906 0,5.539999 4.459906,9.999906 9.999906,9.999906 h 19.999812 c 5.540002,0 9.999906,-4.459907 9.999906,-9.999906 0,-4.600175 -3.07589,-8.453128 -7.291028,-9.62887 -0.26762,-1.658439 -0.956447,-3.273982 -2.089277,-4.681367 -1.953977,-2.427548 -4.793146,-3.704229 -7.671366,-3.738273 z"
         style="opacity:0.995293;fill:#008033;stroke-width:0.25;stroke-linecap:round;filter:url(#filter2048)"
         id="path2042" />
      <path
         id="rect2009"
         style="opacity:0.995293;fill:#00aa88;stroke-width:0.25;stroke-linecap:round"
         d="m 33.448141,16.476142 c -2.238615,-0.02648 -4.500665,0.698709 -6.388758,2.218469 -1.905969,1.534149 -3.101361,3.614211 -3.543969,5.830135 h -3.01532 c -5.54,0 -9.999906,4.459906 -9.999906,9.999906 0,5.539999 4.459906,9.999906 9.999906,9.999906 h 19.999812 c 5.540002,0 9.999906,-4.459907 9.999906,-9.999906 0,-4.600175 -3.07589,-8.453128 -7.291028,-9.62887 -0.26762,-1.658439 -0.956447,-3.273982 -2.089277,-4.681367 -1.953977,-2.427548 -4.793146,-3.704229 -7.671366,-3.738273 z" />
      <path
         d="M 27.65534,26.755481 V 40.897769 L 37.731442,33.826883 Z"
         style="opacity:0.995293;fill:#374837;stroke-width:0.298435;stroke-linecap:round;filter:url(#filter2028)"
         id="path2026" />
      <path
         id="rect2021"
         style="opacity:0.995293;fill:#ffffff;stroke-width:0.298435;stroke-linecap:round"
         d="M 27.126173,26.226314 V 40.368602 L 37.202275,33.297716 Z" />
    </g>
  </g>
</svg>
