<?xml version="1.0" encoding="UTF-8" standalone="no"?>
<svg
   xmlns:dc="http://purl.org/dc/elements/1.1/"
   xmlns:cc="http://creativecommons.org/ns#"
   xmlns:rdf="http://www.w3.org/1999/02/22-rdf-syntax-ns#"
   xmlns:svg="http://www.w3.org/2000/svg"
   xmlns="http://www.w3.org/2000/svg"
   xmlns:sodipodi="http://sodipodi.sourceforge.net/DTD/sodipodi-0.dtd"
   xmlns:inkscape="http://www.inkscape.org/namespaces/inkscape"
   width="61mm"
   height="61mm"
   viewBox="0 0 61 61"
   version="1.1"
   id="svg8"
   inkscape:version="1.0 (4035a4fb49, 2020-05-01)"
   sodipodi:docname="materia_n.svg">
  <defs
     id="defs2">
    <filter
       height="1.0982601"
       y="-0.049130073"
       width="1.0633936"
       x="-0.031696821"
       id="filter1534"
       style="color-interpolation-filters:sRGB"
       inkscape:collect="always">
      <feGaussianBlur
         id="feGaussianBlur1536"
         stdDeviation="0.40941727"
         inkscape:collect="always" />
    </filter>
    <filter
       height="1.076017"
       y="-0.038008518"
       width="1.076017"
       x="-0.038008522"
       id="filter1544"
       style="color-interpolation-filters:sRGB"
       inkscape:collect="always">
      <feGaussianBlur
         id="feGaussianBlur1546"
         stdDeviation="0.15836735"
         inkscape:collect="always" />
    </filter>
  </defs>
  <sodipodi:namedview
     id="base"
     pagecolor="#ffffff"
     bordercolor="#666666"
     borderopacity="1.0"
     inkscape:pageopacity="0.0"
     inkscape:pageshadow="2"
     inkscape:zoom="0.98994949"
     inkscape:cx="78.191216"
     inkscape:cy="45.266683"
     inkscape:document-units="mm"
     inkscape:current-layer="layer1"
     inkscape:document-rotation="0"
     showgrid="false"
     showguides="false"
     inkscape:window-width="1366"
     inkscape:window-height="704"
     inkscape:window-x="0"
     inkscape:window-y="0"
     inkscape:window-maximized="1" />
  <metadata
     id="metadata5">
    <rdf:RDF>
      <cc:Work
         rdf:about="">
        <dc:format>image/svg+xml</dc:format>
        <dc:type
           rdf:resource="http://purl.org/dc/dcmitype/StillImage" />
        <dc:title></dc:title>
      </cc:Work>
    </rdf:RDF>
  </metadata>
  <g
     inkscape:label="Capa 1"
     inkscape:groupmode="layer"
     id="layer1">
    <g
       id="g2245">
      <circle
         style="opacity:0.995293;fill:#aa8800;stroke-width:0.25;stroke-linecap:round"
         id="path1499"
         cx="30.5"
         cy="30.5"
         r="30" />
      <path
         id="rect1503"
         style="opacity:0.995293;fill:#502d16;fill-opacity:1;stroke-width:0.25;stroke-linecap:round"
         d="m 26.339605,19.357171 c -3.315755,-0.01928 -6.836275,0.05788 -6.836275,0.05788 -1.108001,0 -2.000395,0.891878 -2.000395,1.999878 v 0.760161 h 15.259017 c -0.124981,-0.185134 -0.245724,-0.358425 -0.34985,-0.489896 -0.772465,-0.975336 -1.449107,-2.213846 -2.963125,-2.270146 -0.921681,-0.03427 -2.00412,-0.05145 -3.109372,-0.05788 z" />
      <rect
         ry="2.0000012"
         rx="2.0000012"
         y="22.704256"
         x="16.058332"
         height="20"
         width="31"
         id="rect1532"
         style="opacity:0.995293;fill:#28170b;stroke-width:0.25;stroke-linecap:round;filter:url(#filter1534)" />
      <rect
         style="opacity:0.995293;fill:#784421;stroke-width:0.25;stroke-linecap:round"
         id="rect1501"
         width="31"
         height="20"
         x="15"
         y="21.645922"
         rx="2.0000012"
         ry="2.0000012" />
      <path
         d="m 31.029113,26.029419 c -0.554,0 -0.99994,0.445939 -0.99994,0.999938 v 2.999817 h -2.999816 c -0.553999,0 -0.999938,0.445939 -0.999938,0.99994 0,0.554 0.445939,0.999939 0.999938,0.999939 h 2.999816 v 3.000333 c 0,0.554 0.44594,0.99994 0.99994,0.99994 0.554001,0 0.99994,-0.44594 0.99994,-0.99994 v -3.000333 h 3.000333 c 0.554,0 0.999939,-0.445939 0.999939,-0.999939 0,-0.554001 -0.445939,-0.99994 -0.999939,-0.99994 h -3.000333 v -2.999817 c 0,-0.553999 -0.445939,-0.999938 -0.99994,-0.999938 z"
         style="opacity:0.995293;fill:#28170b;fill-opacity:1;stroke-width:0.25;stroke-linecap:round;filter:url(#filter1544)"
         id="path1538" />
      <path
         id="rect1516"
         style="opacity:0.995293;fill:#502d16;fill-opacity:1;stroke-width:0.25;stroke-linecap:round"
         d="m 30.499947,25.500252 c -0.554001,0 -0.99994,0.445939 -0.99994,0.999938 v 2.999817 H 26.50019 c -0.553999,0 -0.999938,0.445939 -0.999938,0.99994 0,0.554 0.445939,0.999939 0.999938,0.999939 h 2.999817 v 3.000333 c 0,0.554 0.445939,0.99994 0.99994,0.99994 0.554,0 0.999939,-0.44594 0.999939,-0.99994 v -3.000333 h 3.000333 c 0.554,0 0.99994,-0.445939 0.99994,-0.999939 0,-0.554001 -0.44594,-0.99994 -0.99994,-0.99994 H 31.499886 V 26.50019 c 0,-0.553999 -0.445939,-0.999938 -0.999939,-0.999938 z" />
    </g>
  </g>
</svg>
