<?xml version="1.0" encoding="UTF-8" standalone="no"?>
<svg
   xmlns:dc="http://purl.org/dc/elements/1.1/"
   xmlns:cc="http://creativecommons.org/ns#"
   xmlns:rdf="http://www.w3.org/1999/02/22-rdf-syntax-ns#"
   xmlns:svg="http://www.w3.org/2000/svg"
   xmlns="http://www.w3.org/2000/svg"
   xmlns:sodipodi="http://sodipodi.sourceforge.net/DTD/sodipodi-0.dtd"
   xmlns:inkscape="http://www.inkscape.org/namespaces/inkscape"
   sodipodi:docname="permisos.svg"
   inkscape:version="1.0 (4035a4fb49, 2020-05-01)"
   id="svg8"
   version="1.1"
   viewBox="0 0 60.5 60.5"
   height="60.5mm"
   width="60.5mm">
  <defs
     id="defs2" />
  <sodipodi:namedview
     inkscape:window-maximized="1"
     inkscape:window-y="0"
     inkscape:window-x="0"
     inkscape:window-height="704"
     inkscape:window-width="1366"
     showgrid="false"
     inkscape:document-rotation="0"
     inkscape:current-layer="layer1"
     inkscape:document-units="mm"
     inkscape:cy="113.05506"
     inkscape:cx="114.33071"
     inkscape:zoom="0.78391699"
     inkscape:pageshadow="2"
     inkscape:pageopacity="0.0"
     borderopacity="1.0"
     bordercolor="#666666"
     pagecolor="#ffffff"
     id="base" />
  <metadata
     id="metadata5">
    <rdf:RDF>
      <cc:Work
         rdf:about="">
        <dc:format>image/svg+xml</dc:format>
        <dc:type
           rdf:resource="http://purl.org/dc/dcmitype/StillImage" />
        <dc:title />
      </cc:Work>
    </rdf:RDF>
  </metadata>
  <g
     id="layer1"
     inkscape:groupmode="layer"
     inkscape:label="Capa 1">
    <path
       id="path939"
       style="fill:#8a9b4e;fill-opacity:1;stroke:none;stroke-width:1;stroke-linecap:round;stroke-miterlimit:4;stroke-dasharray:none;stroke-opacity:1"
       d="M 47.250008,30.250015 A 17,17 0 0 1 30.33086,47.249823 17,17 0 0 1 13.250777,30.411718 17,17 0 0 1 30.007458,13.251746 17,17 0 0 1 47.246931,29.926625 M 25.073405,0.25011393 V 5.5624512 A 25.16564,25.029474 0 0 0 16.448092,9.1270914 L 12.697416,5.3764158 5.3764158,12.697416 9.1281249,16.449642 A 25.16564,25.029474 0 0 0 5.5882894,25.073405 H 0.25011393 V 35.426777 H 5.6709717 a 25.16564,25.029474 0 0 0 3.6111489,8.470286 l -3.9057048,3.905705 7.3210002,7.320999 3.98632,-3.986321 a 25.16564,25.029474 0 0 0 8.389669,3.413228 v 5.699395 h 10.353372 v -5.699395 a 25.16564,25.029474 0 0 0 8.38967,-3.413228 l 3.986321,3.986321 7.320999,-7.320999 -3.905705,-3.905705 a 25.16564,25.029474 0 0 0 3.611666,-8.470286 h 5.420341 V 25.073405 H 54.911894 A 25.16564,25.029474 0 0 0 51.371542,16.449642 L 55.123767,12.697416 47.802768,5.3764158 44.051574,9.1270914 A 25.16564,25.029474 0 0 0 35.426777,5.5624512 V 0.25011393 Z" />
  </g>
</svg>
