<?xml version="1.0" encoding="UTF-8" standalone="no"?>
<svg
   xmlns:dc="http://purl.org/dc/elements/1.1/"
   xmlns:cc="http://creativecommons.org/ns#"
   xmlns:rdf="http://www.w3.org/1999/02/22-rdf-syntax-ns#"
   xmlns:svg="http://www.w3.org/2000/svg"
   xmlns="http://www.w3.org/2000/svg"
   xmlns:sodipodi="http://sodipodi.sourceforge.net/DTD/sodipodi-0.dtd"
   xmlns:inkscape="http://www.inkscape.org/namespaces/inkscape"
   inkscape:version="1.0 (4035a4fb49, 2020-05-01)"
   sodipodi:docname="triangular-warning-sign.svg"
   xml:space="preserve"
   style="enable-background:new 0 0 458.096 458.096;"
   viewBox="0 0 458.096 458.096"
   height="458.096px"
   width="458.096px"
   y="0px"
   x="0px"
   id="Capa_1"
   version="1.1"><metadata
   id="metadata41"><rdf:RDF><cc:Work
       rdf:about=""><dc:format>image/svg+xml</dc:format><dc:type
         rdf:resource="http://purl.org/dc/dcmitype/StillImage" /></cc:Work></rdf:RDF></metadata><defs
   id="defs39">
	
</defs><sodipodi:namedview
   inkscape:current-layer="Capa_1"
   inkscape:window-maximized="1"
   inkscape:window-y="0"
   inkscape:window-x="0"
   inkscape:cy="229.048"
   inkscape:cx="229.048"
   inkscape:zoom="0.37200223"
   showgrid="false"
   id="namedview37"
   inkscape:window-height="704"
   inkscape:window-width="1366"
   inkscape:pageshadow="2"
   inkscape:pageopacity="0"
   guidetolerance="10"
   gridtolerance="10"
   objecttolerance="10"
   borderopacity="1"
   bordercolor="#666666"
   pagecolor="#ffffff" />
<g
   id="g868"><path
     id="path2"
     d="M 454.106,396.635 247.33,38.496 c -3.783,-6.555 -10.775,-10.592 -18.344,-10.592 -7.566,0 -14.561,4.037 -18.344,10.592 L 2.837,398.414 c -3.783,6.555 -3.783,14.629 0,21.184 3.783,6.556 10.778,10.593 18.344,10.593 h 415.613 c 0.041,0 0.088,0.006 0.118,0 11.709,0 21.184,-9.481 21.184,-21.185 0,-4.622 -1.484,-8.89 -3.99,-12.371 z M 57.872,387.822 228.986,91.456 400.1,387.828 H 57.872 Z M 218.054,163.009 h 21.982 c 1.803,0 3.534,0.727 4.8,2.021 1.259,1.3 1.938,3.044 1.892,4.855 l -4.416,138.673 c -0.095,3.641 -3.073,6.537 -6.703,6.537 h -13.125 c -3.635,0 -6.614,-2.902 -6.7,-6.537 l -4.418,-138.673 c -0.047,-1.812 0.636,-3.555 1.895,-4.855 1.259,-1.294 2.99,-2.021 4.793,-2.021 z m 28.395,170.493 v 25.104 c 0,3.699 -2.997,6.696 -6.703,6.696 h -21.394 c -3.706,0 -6.7,-2.997 -6.7,-6.696 v -25.104 c 0,-3.7 2.994,-6.703 6.7,-6.703 h 21.394 c 3.706,-0.006 6.703,3.003 6.703,6.703 z" /></g>
<g
   id="g6">
</g>
<g
   id="g8">
</g>
<g
   id="g10">
</g>
<g
   id="g12">
</g>
<g
   id="g14">
</g>
<g
   id="g16">
</g>
<g
   id="g18">
</g>
<g
   id="g20">
</g>
<g
   id="g22">
</g>
<g
   id="g24">
</g>
<g
   id="g26">
</g>
<g
   id="g28">
</g>
<g
   id="g30">
</g>
<g
   id="g32">
</g>
<g
   id="g34">
</g>
</svg>
